<?xml version="1.0" encoding="UTF-8" standalone="no"?>
<svg xmlns="http://www.w3.org/2000/svg" viewBox="0 0 800 400">
  <!-- Tesla Model 3/Y Silhouette - Gray/Black version -->
  <g fill="#333333" stroke="#222222" stroke-width="2">
    <!-- Car body -->
    <path d="M150,250 C150,250 200,280 250,290 C300,300 350,300 400,300 C450,300 500,300 550,290 C600,280 650,250 650,250 C650,250 670,240 680,220 C690,200 700,150 700,150 L680,120 C680,120 650,100 600,90 C550,80 500,75 400,75 C300,75 250,80 200,90 C150,100 120,120 120,120 L100,150 C100,150 110,200 120,220 C130,240 150,250 150,250 Z" />
    
    <!-- Windshield -->
    <path d="M200,120 C250,100 350,90 400,90 C450,90 550,100 600,120 C600,120 550,150 400,150 C250,150 200,120 200,120 Z" fill="#444444" />
    
    <!-- Roof -->
    <path d="M220,120 C270,105 350,95 400,95 C450,95 530,105 580,120 C580,120 550,180 400,180 C250,180 220,120 220,120 Z" fill="#222222" />
    
    <!-- Windows -->
    <path d="M220,120 C220,120 230,150 230,170 C230,190 220,210 220,210 C220,210 250,220 300,225 C300,225 310,180 310,150 C310,120 300,110 300,110 C300,110 270,115 220,120 Z" fill="#444444" />
    <path d="M580,120 C580,120 570,150 570,170 C570,190 580,210 580,210 C580,210 550,220 500,225 C500,225 490,180 490,150 C490,120 500,110 500,110 C500,110 530,115 580,120 Z" fill="#444444" />
    
    <!-- Wheels -->
    <circle cx="230" cy="250" r="40" fill="#111111" />
    <circle cx="230" cy="250" r="25" fill="#333333" />
    <circle cx="570" cy="250" r="40" fill="#111111" />
    <circle cx="570" cy="250" r="25" fill="#333333" />
    
    <!-- Headlights -->
    <path d="M150,150 C150,150 160,140 180,135 C180,135 185,145 185,150 C185,155 180,165 180,165 C180,165 160,160 150,150 Z" fill="#444444" />
    <path d="M650,150 C650,150 640,140 620,135 C620,135 615,145 615,150 C615,155 620,165 620,165 C620,165 640,160 650,150 Z" fill="#444444" />
    
    <!-- Taillights -->
    <path d="M170,210 C170,210 180,215 200,220 C200,220 205,215 205,210 C205,205 200,200 200,200 C200,200 180,205 170,210 Z" fill="#333333" />
    <path d="M630,210 C630,210 620,215 600,220 C600,220 595,215 595,210 C595,205 600,200 600,200 C600,200 620,205 630,210 Z" fill="#333333" />
  </g>
</svg>
